HIERARCHY
ROOT Hips
{
	OFFSET	0	0	0
	CHANNELS 6  Xposition Yposition Zposition Xrotation Yrotation Zrotation
	JOINT Spine
	{
		OFFSET	0	6.22639	1.25326
		CHANNELS 3  Xrotation Yrotation Zrotation
		JOINT Spine1
		{
			OFFSET	0	10.6877	-1.90851
			CHANNELS 3  Xrotation Yrotation Zrotation
			JOINT Spine2
			{
				OFFSET	0	8.10164	0.868374
				CHANNELS 3  Xrotation Yrotation Zrotation
				JOINT Spine3
				{
					OFFSET	0	9.69525	2.88186
					CHANNELS 3  Xrotation Yrotation Zrotation
					JOINT Spine4
					{
						OFFSET	0	14.352	-1.46956
						CHANNELS 3  Xrotation Yrotation Zrotation
						JOINT Neck
						{
							OFFSET	0	6.85157	-4.79991
							CHANNELS 3  Xrotation Yrotation Zrotation
							JOINT Head
							{
								OFFSET	0	8.2257	-2.46198
								CHANNELS 3  Xrotation Yrotation Zrotation
								End Site
								{
									OFFSET	0	17.1575	-0.830203
								}
							}
						}
					}
					JOINT LeftShoulder
					{
						OFFSET	-4.12239	17.4438	-8.22569
						CHANNELS 3  Xrotation Yrotation Zrotation
						JOINT LeftArm
						{
							OFFSET	-8.97544	-2.46198	3.15861
							CHANNELS 3  Xrotation Yrotation Zrotation
							JOINT LeftForeArm
							{
								OFFSET	-28.8645	-1.31743	2.06032
								CHANNELS 3  Xrotation Yrotation Zrotation
								JOINT LeftHand
								{
									OFFSET	-23.6955	-1.63749	1.69136
									CHANNELS 3  Xrotation Yrotation Zrotation
									End Site
									{
										OFFSET	-8.64768	-0.597604	0.617222
									}
								}
							}
						}
					}
					JOINT RightShoulder
					{
						OFFSET	4.12239	17.4438	-8.22569
						CHANNELS 3  Xrotation Yrotation Zrotation
						JOINT RightArm
						{
							OFFSET	8.97544	-2.46198	3.15861
							CHANNELS 3  Xrotation Yrotation Zrotation
							JOINT RightForeArm
							{
								OFFSET	28.8645	-1.31743	2.06032
								CHANNELS 3  Xrotation Yrotation Zrotation
								JOINT RightHand
								{
									OFFSET	23.6955	-1.63749	1.69136
									CHANNELS 3  Xrotation Yrotation Zrotation
									End Site
									{
										OFFSET	8.64768	-0.597604	0.617222
									}
								}
							}
						}
					}
				}
			}
		}
	}
	JOINT LeftUpLeg
	{
		OFFSET	-8.47813	-3.1132	-0.626629
		CHANNELS 3  Xrotation Yrotation Zrotation
		JOINT LeftLeg
		{
			OFFSET	-1.88069	-36.8514	-0.576069
			CHANNELS 3  Xrotation Yrotation Zrotation
			JOINT LeftFoot
			{
				OFFSET	-1.83866	-33.8924	2.91475
				CHANNELS 3  Xrotation Yrotation Zrotation
				JOINT LeftToeBase
				{
					OFFSET	0	-4.18359	-11.1116
					CHANNELS 3  Xrotation Yrotation Zrotation
					End Site
					{
						OFFSET	0	-1.67344	-6.69374
					}
				}
			}
		}
	}
	JOINT RightUpLeg
	{
		OFFSET	8.47813	-3.1132	-0.626629
		CHANNELS 3  Xrotation Yrotation Zrotation
		JOINT RightLeg
		{
			OFFSET	1.88069	-36.8514	-0.576069
			CHANNELS 3  Xrotation Yrotation Zrotation
			JOINT RightFoot
			{
				OFFSET	1.83866	-33.8924	2.91475
				CHANNELS 3  Xrotation Yrotation Zrotation
				JOINT RightToeBase
				{
					OFFSET	0	-4.18359	-11.1116
					CHANNELS 3  Xrotation Yrotation Zrotation
					End Site
					{
						OFFSET	0	-1.67344	-6.69374
					}
				}
			}
		}
	}
}
MOTION
Frames: 12
Frame Time: 0.020409
 0 -4.10085 3.34698 -0 0 -0 -0 0 -0 -0 0 -0 -0 0 -0 -0 0 -0 -0 0 -0 -0 0 -0 -0 0 -0 -0 0 -0 -0 0 -0 -0 0 -0 -0 0 -0 -0 0 -0 -0 0 -0 -0 0 -0 -0 0 -0 -0 0 -0 -0 0 -0 -0 0 -0 -0 0 -0 -0 0 -0 -0 0 -0 -0 0 -0 -0 0 -0
 281.44 16.3082 -181.838 82.2942 29.4502 53.8847 179.998 -179.992 166.12 176.452 -179.986 156.867 176.967 -179.957 156.867 179.22 -179.992 166.12 175.142 179.607 175.39 169.17 -173.151 170.411 176.822 -174.203 176.827 0.693219 -24.9443 1.50443 17.9599 -33.12 28.8735 2.2808 -31.1364 -0.466552 -0 1.5011 -0.0287601 171.593 156.495 -161.505 99.6577 18.3838 3.3386 0.0405662 55.8654 14.9176 -0 -1.53583 20.9355 17.2931 67.4242 -18.5303 118.891 -164.008 -179.294 154.699 -179.438 -168.364 167.5 180 -180 129.644 16.5236 66.2187 2.08385 3.66467 0.197502 2.88929 -0.0111609 -1.94089 0.00610041 0 0
 286.04 16.2026 -179.236 79.6245 29.2277 59.6937 179.997 -179.987 166.097 176.507 -179.975 156.828 176.926 -179.926 156.828 178.997 -179.987 166.097 175.767 179.657 175.378 170.884 -172.591 170.408 177.343 -173.833 176.789 0.921525 -25.084 2.00026 18.1889 -33.4942 29.4723 2.40052 -30.9831 -0.464945 -0 1.76402 -0.1418 172.189 155.431 -162.84 99.6827 17.84 3.52245 0.122886 56.0368 1.84061 -0 -1.53762 20.8259 17.7843 67.4707 -20.5696 118.675 -176.59 -179.237 164.121 -179.565 -171.453 167.504 180 -180 128.887 16.8922 66.9763 2.32624 4.0656 0.315775 1.32798 -0.0288124 -2.09639 0.00245427 0 0
 286.737 18.0449 -178.946 81.6391 30.5928 59.5501 179.993 -179.972 166.406 176.525 -179.948 157.344 176.846 -179.843 157.343 178.785 -179.972 166.406 176.308 179.708 175.478 172.378 -171.96 170.245 177.801 -173.409 176.703 1.07117 -25.7361 2.32614 18.6421 -34.1674 29.7153 2.51635 -30.9518 -0.402654 -0 2.00734 -0.21478 172.452 154.242 -163.423 99.1481 17.0502 3.14757 0.226817 56.0037 1.25953 -0 -1.50077 20.6165 19.2088 67.205 -23.8825 118.408 172.503 -179.51 172.225 -179.745 -174.129 167.507 180 -180 128.032 17.5529 67.3724 2.61303 4.35693 0.166452 0.0704717 -0.063624 -2.21501 180 180 -180
 287.065 16.6038 -178.135 81.2396 29.3586 59.9659 0.00189785 0.0078888 -13.5269 176.622 179.985 157.455 176.946 179.955 157.455 178.681 179.992 166.473 176.7 179.74 175.499 173.384 -171.257 169.744 178.118 -172.988 176.524 1.44915 -26.7291 3.14863 19.329 -35.302 30.6366 2.71772 -31.67 -0.168753 -0 2.02189 -0.179945 172.813 152.745 -164.234 99.1545 16.3777 2.66054 0.278283 56.2352 1.58327 -0 -1.40884 20.6025 19.9785 66.8872 -27.5847 117.485 163.035 179.933 178.138 179.827 -176.43 167.51 180 -180 126.887 18.1788 67.1846 2.81072 4.83332 0.0029293 0.150434 0.00213654 -2.39822 0.000650659 0 0
 286.429 16.4455 -177.925 81.8057 28.9538 59.0039 0.00116682 0.0049064 -13.3774 176.663 179.991 157.704 176.948 179.972 157.704 178.605 179.995 166.623 176.956 179.763 175.547 174.017 -170.634 169.171 178.326 -172.66 176.335 1.20086 -27.7883 2.60893 19.6443 -36.4298 30.8117 2.8963 -32.2912 -0.0581602 -0 1.91378 -0.225624 173.047 152.552 -164.757 98.8067 15.9023 2.32782 0.446343 56.2528 1.43093 -0 -1.37521 20.4088 21.8672 66.9033 -31.5429 117.004 162.581 -179.935 2.15894 0.074683 1.85134 167.511 180 -180 126.001 18.7049 67.349 2.5365 5.19144 0.00812416 0.373828 -0.0688262 -2.53581 0.00111454 0 0
 280.223 10.346 -178.943 74.3055 6.97359 50.3813 179.989 -179.947 167.796 177.723 -179.899 159.66 177.624 -179.697 159.66 178.423 -179.947 167.796 179.424 179.959 175.932 0.481512 -0.407422 -0.72011 0.145301 0.0738153 -0.206822 0.196588 -0.387673 0.380372 0.0891982 -0.777366 -0.256147 179.996 179.787 179.808 -0 0.126117 -0.0739639 179.872 179.72 -179.753 179.929 179.463 -179.565 0.0113119 -0.219396 -0.270792 -0 -0.0922059 -0.0565492 3.76039 41.7508 26.9172 143.509 179.817 -178.801 173.007 161.127 177.391 0.00015577 0 0 170.399 -15.3259 73.1475 75.6867 -179.707 179.55 177.555 -166.512 -171.976 0.00155495 0 0
 280.885 12.9323 -182.094 76.4648 7.68845 50.1038 179.998 -179.989 167.923 177.784 -179.979 159.872 177.704 -179.938 159.872 178.334 -179.989 167.923 179.711 179.98 175.974 1.27666 -0.307388 -0.28106 0.383115 -0.21233 -0.0993032 1.06698 -1.21077 2.08004 0.271178 -1.07481 1.6362 0.0813488 -5.7886 -1.4264 -0 0.0191165 -0.0370304 179.725 176.771 -179.456 0.0417471 2.22644 0.0089382 0.0559868 6.01004 1.67462 -0 0.0885778 0.00991424 2.03334 40.5332 27.5126 143.926 -179.886 -179.697 176.886 179.976 177.243 0.00282411 0 0 170.04 -15.1391 73.3327 77.579 -179.849 179.838 178.673 -179.918 -172.018 0.0011124 0 0
 280.678 13.6619 -182.683 76.8513 8.12786 50.8998 179.998 -179.992 167.75 177.743 -179.984 159.583 177.688 -179.951 159.583 178.37 -179.992 167.75 179.548 179.968 175.917 0.830512 -1.57708 -1.90379 0.255024 -0.624158 -0.61034 1.37013 -2.14903 2.69275 0.682179 -1.92005 3.97881 0.157658 -10.2138 -1.55785 -0 0.0397746 0.0563684 178.872 173.54 -177.71 179.872 175.453 -179.369 0.0986333 11.3714 1.60425 -0 0.258275 -0.111699 178.731 140.993 -155.155 142.584 -179.412 -179.999 176.26 -179.962 177.368 180 180 -180 169.323 -14.5222 72.8153 76.4891 179.966 -179.883 0.48344 0.0122336 8.01384 0.00522517 0 0
 277.977 14.0931 -184.844 82.3838 9.27934 49.3551 179.998 -179.991 167.587 177.709 -179.984 159.312 177.662 -179.951 159.312 178.372 -179.991 167.587 179.478 179.962 175.863 0.623009 -2.73282 -3.30457 0.20445 -1.10247 -1.05908 1.23236 -3.35038 2.44516 1.13176 -2.99335 5.65777 0.233263 -13.548 -1.65611 -0 0.0828283 0.114187 178.275 171.261 -176.447 179.625 173.956 -179.095 0.154656 15.7561 1.31918 -0 0.340659 -0.206731 176.015 141.57 -157.371 141.931 -179.072 -179.729 175.216 -179.961 177.502 179.997 180 -180 168.683 -13.9059 73.0607 76.1455 179.927 -179.821 3.17971 -0.040483 8.12066 0.00938895 0 0
 276.863 15.7028 -186.659 85.2383 7.37099 50.0654 0.000871258 0.00381648 -12.8596 177.643 179.993 158.567 177.654 179.978 158.567 178.442 179.996 167.14 179.182 179.939 175.714 179.809 -176.592 175.756 179.971 -178.613 178.65 1.21524 -6.2518 2.46255 1.69854 -5.54114 6.99724 0.399471 -17.1544 -1.38194 -0 -0.0828002 0.367459 177.405 169.086 -174.586 179.501 172.699 -178.293 0.166168 19.6824 1.63105 -0 0.617117 -0.117972 172.772 142.09 -158.871 140.344 -178.965 179.927 174.389 179.972 177.565 179.996 180 -180 167.698 -14.0323 72.6836 75.213 179.977 -179.934 2.84174 0.00191088 8.15916 0.0101471 0 0
 265.382 14.9844 -185.837 85.9706 11.7411 34.0123 0.0100214 0.0464074 -12.1855 177.752 179.911 159.691 177.372 179.733 159.691 177.153 179.954 167.814 2.35322 -0.167058 -4.0584 8.93362 -1.68623 1.19301 2.68073 -4.11765 0.145478 0.00152656 1.78032 0.00289455 0.117464 0.185666 0.0677556 179.978 179.921 -179.977 -0 0.0585577 0.0445267 178.093 -178.982 -176.354 179.16 179.98 -179.263 0.0144412 0.189419 -0.289087 -0 0.0530297 -0.119134 3.3419 39.4087 26.2727 142.056 179.953 179.684 178.718 161.251 177.221 0.01944 0 0 176.302 -21.4244 76.6303 78.2281 179.925 172.124 176.499 -166.918 -172.231 179.998 180 -180
